{
  "accessors": [
    {
      "bufferView": 2,
      "componentType": 5126,
      "count": 11096,
      "max": [
        70.00000762939453,
        70.0000228881836,
        34.68558883666992
      ],
      "min": [
        -70.00000762939453,
        -70.00000762939453,
        1.2622262239456177
      ],
      "type": "VEC3"
    },
    {
      "bufferView": 2,
      "byteOffset": 133152,
      "componentType": 5126,
      "count": 11096,
      "max": [
        0.9900588989257813,
        0.9407202005386353,
        1.0
      ],
      "min": [
        -0.975714385509491,
        -0.8823277354240417,
        0.1341436207294464
      ],
      "type": "VEC3"
    },
    {
      "bufferView": 3,
      "componentType": 5126,
      "count": 11096,
      "max": [
        1.0,
        0.8185356259346008,
        0.975756824016571,
        1.0
      ],
      "min": [
        -0.4899367094039917,
        -0.9982881546020508,
        -0.9909436702728271,
        -1.0
      ],
      "type": "VEC4"
    },
    {
      "bufferView": 1,
      "componentType": 5126,
      "count": 11096,
      "max": [
        1.0,
        1.0
      ],
      "min": [
        0.0,
        5.960464477539063e-08
      ],
      "type": "VEC2"
    },
    {
      "bufferView": 0,
      "componentType": 5125,
      "count": 39135,
      "type": "SCALAR"
    }
  ],
  "asset": {
    "extras": {
      "author": "hkp941111 (https://sketchfab.com/hkp941111)",
      "license": "CC-BY-4.0 (http://creativecommons.org/licenses/by/4.0/)",
      "source": "https://sketchfab.com/3d-models/snow-mountain-e84a8e5edb2040c591be36350e2536f5",
      "title": "Snow Mountain"
    },
    "generator": "Sketchfab-12.68.0",
    "version": "2.0"
  },
  "bufferViews": [
    {
      "buffer": 0,
      "byteLength": 156540,
      "name": "floatBufferViews",
      "target": 34963
    },
    {
      "buffer": 0,
      "byteLength": 88768,
      "byteOffset": 156540,
      "byteStride": 8,
      "name": "floatBufferViews",
      "target": 34962
    },
    {
      "buffer": 0,
      "byteLength": 266304,
      "byteOffset": 245308,
      "byteStride": 12,
      "name": "floatBufferViews",
      "target": 34962
    },
    {
      "buffer": 0,
      "byteLength": 177536,
      "byteOffset": 511612,
      "byteStride": 16,
      "name": "floatBufferViews",
      "target": 34962
    }
  ],
  "buffers": [
    {
      "byteLength": 689148,
      "uri": "scene.bin"
    }
  ],
  "images": [
    {
      "uri": "textures/01_-_Default_baseColor.png"
    },
    {
      "uri": "textures/01_-_Default_normal.png"
    }
  ],
  "materials": [
    {
      "doubleSided": true,
      "name": "01_-_Default",
      "normalTexture": {
        "index": 1
      },
      "pbrMetallicRoughness": {
        "baseColorTexture": {
          "index": 0
        },
        "metallicFactor": 0.0,
        "roughnessFactor": 0.8929713596
      }
    }
  ],
  "meshes": [
    {
      "name": "Plane001_01 - Default_0",
      "primitives": [
        {
          "attributes": {
            "NORMAL": 1,
            "POSITION": 0,
            "TANGENT": 2,
            "TEXCOORD_0": 3
          },
          "indices": 4,
          "material": 0,
          "mode": 4
        }
      ]
    }
  ],
  "nodes": [
    {
      "children": [
        1
      ],
      "matrix": [
        1.0,
        0.0,
        0.0,
        0.0,
        0.0,
        2.220446049250313e-16,
        -1.0,
        0.0,
        0.0,
        1.0,
        2.220446049250313e-16,
        0.0,
        0.0,
        0.0,
        0.0,
        1.0
      ],
      "name": "Sketchfab_model"
    },
    {
      "children": [
        2
      ],
      "matrix": [
        1.0,
        0.0,
        0.0,
        0.0,
        0.0,
        0.0,
        1.0,
        0.0,
        0.0,
        -1.0,
        0.0,
        0.0,
        0.0,
        0.0,
        0.0,
        1.0
      ],
      "name": "a2ba4dffee4b42a288e4277e1da36c7c.fbx"
    },
    {
      "children": [
        3
      ],
      "name": "RootNode"
    },
    {
      "children": [
        4
      ],
      "matrix": [
        0.9997491651661495,
        1.734723475976807e-18,
        0.02239657897061769,
        0.0,
        0.02239657897061769,
        -2.220446049250313e-16,
        -0.9997491651661496,
        0.0,
        1.734723475976807e-18,
        1.0000000000000002,
        -2.220446049250313e-16,
        0.0,
        0.0,
        0.0,
        0.0,
        1.0
      ],
      "name": "Plane001"
    },
    {
      "mesh": 0,
      "name": "Plane001_01 - Default_0"
    }
  ],
  "samplers": [
    {
      "magFilter": 9729,
      "minFilter": 9987,
      "wrapS": 10497,
      "wrapT": 10497
    }
  ],
  "scene": 0,
  "scenes": [
    {
      "name": "Sketchfab_Scene",
      "nodes": [
        0
      ]
    }
  ],
  "textures": [
    {
      "sampler": 0,
      "source": 0
    },
    {
      "sampler": 0,
      "source": 1
    }
  ]
}
